<svg xmlns="http://www.w3.org/2000/svg" xmlns:xlink="http://www.w3.org/1999/xlink" version="1.1" baseProfile="basic" id="Calque_1" x="0px" y="0px" width="800px" height="2000px" viewBox="0 0 800 2000" xml:space="preserve">
<path fill="none" stroke="#000000" stroke-miterlimit="10" d="M721.5,7.5v134.014l23.168-2.439l7.104,67.836l-18.215,32.443  l16.874,61.937l-12.63,42.766l15.454,54.565l-1.401,137.146l-2.807,89.958l-19.661,29.494l18.259,20.646l2.808,116.5l-2.809,72.261  l-11.234,38.342l15.447,269.87l-36.512,39.817l36.512,33.917l-23.873,60.463c0,0,8.426,73.735,7.021,78.159  c-1.405,4.424,8.426,206.458,8.426,206.458l12.638,57.514l-25.276,26.545l15.446,41.291l-18.255,261.022l-28.086-13.272  l-32.299,14.747l-15.448-13.271l-66.002,10.322c0,0-68.811-1.475-73.023-1.475s-66.002,1.475-66.002,1.475l-73.023,2.949  c0,0-53.364-10.322-57.577-10.322s-25.278,7.328-29.491,8.804c-4.212,1.474-39.408-7.482-39.408-7.482H191.54l-26.688-8.778  l-40.73,11.849l-40.737-8.85l-43.556,10.305l-11.28-54.604l29.583-126.733c0,0,5.617-120.926,4.213-125.349  c-1.404-4.423,23.873-73.735,23.873-73.735l-23.873-64.887l-8.426-122.4l23.873-109.127l-21.063-57.513l-1.405-171.065  l22.509-91.431L52.5,969.217V759.923l15.454-91.431l44.965-16.221l21.054-45.716l-23.878,1.475l-56.174-56.039l21.063-64.887  l-28.086-11.798l-1.404-88.482l16.852-30.968l-19.661-11.798l15.447-176.964l1.552-48.666l10.817,5.796V7.5h-62v1988h780V7.5H721.5z  "/>
</svg>