<?xml version="1.0" encoding="utf-8"?>
<!-- Generator: Adobe Illustrator 15.0.0, SVG Export Plug-In . SVG Version: 6.00 Build 0)  -->
<!DOCTYPE svg PUBLIC "-//W3C//DTD SVG 1.1 Basic//EN" "http://www.w3.org/Graphics/SVG/1.1/DTD/svg11-basic.dtd">
<svg version="1.1" baseProfile="basic" id="Calque_1"
	 xmlns="http://www.w3.org/2000/svg" xmlns:xlink="http://www.w3.org/1999/xlink" x="0px" y="0px" width="800px" height="2000px"
	 viewBox="0 0 800 2000" xml:space="preserve">
<g id="Calque_2">
	<polygon fill="none" stroke="#000000" stroke-miterlimit="10" points="34,8.5 28,187.188 18,309.094 14,609.047 34,783.022 
		42,955.012 22,969.006 30,1225.003 32,1533.002 48,1529.001 58,1553 60,1729 66,1739 70,1961 122,1957 192,1933 200,1959 
		220,1947.25 228,1963.5 256,1963.5 264,1973 650,1969 672,1945 698,1975 724,1935 726,1649 746,1633 762,1611 772,1619 770,1517 
		780,1501 774,859 780,341 756,347 774,171 790,59.438 784,8.5 798.5,8.5 798.5,1990.5 9.5,1990.5 9.5,8.5 	"/>
</g>
</svg>
