<?xml version="1.0" encoding="utf-8"?>
<svg version="1.2" baseProfile="tiny" id="Calque_1"
	 xmlns="http://www.w3.org/2000/svg" xmlns:xlink="http://www.w3.org/1999/xlink" x="0px" y="0px" width="600px" height="2000px"
	 viewBox="0 0 600 2000" xml:space="preserve">
<polygon fill="none" stroke="#000000" stroke-miterlimit="10" points="0.5,1992 24.188,1977.75 28.344,1986.625 39.922,1977.563 
	53.961,1989.031 69.98,1983.016 85.49,1974.008 93.495,1986.504 114.498,1982.002 117.999,1987 124.5,1974 135,1988 153.5,1984.5 
	167.5,1986.5 175,1973.5 186,1984.75 186.5,1995.5 386,1995.5 395,1979.5 401,1987 424.5,1983.5 427,1979.5 431,1985.5 
	446.5,1980.5 455.5,1988 481,1980 493,1987 521.5,1977.5 538.5,1984.5 555.5,1977.5 570.5,1985.5 583,1977 586.75,1985 
	600.5,1975.75 600.5,1999.5 0.5,1999.5 "/>
</svg>
